<svg aria-hidden="true" style="position: absolute; width: 0; height: 0; overflow: hidden;" version="1.1"
    xmlns="http://www.w3.org/2000/svg" xmlns:xlink="http://www.w3.org/1999/xlink">
    <defs>
        <symbol id="icon-search-loop" viewBox="0 0 32 32">
            <path fill="none" stroke="#fff" style="stroke: var(--color1, #fff)" stroke-linejoin="round"
                stroke-linecap="round" stroke-miterlimit="4" stroke-width="2.6667"
                d="M14.667 25.333c5.891 0 10.667-4.776 10.667-10.667s-4.776-10.667-10.667-10.667v0c-5.891 0-10.667 4.776-10.667 10.667s4.776 10.667 10.667 10.667v0zM28 28l-5.867-5.867">
            </path>
        </symbol>
        <symbol id="icon-arrow-left" viewBox="0 0 32 32">
            <path stroke-linejoin="round" stroke-linecap="round" stroke-miterlimit="4" stroke-width="2.6"
                d="M25.4 16h-18.8M16 25.4l-9.4-9.4 9.4-9.4"></path>
        </symbol>
        <symbol id="icon-arrow-right" viewBox="0 0 32 32">
            <path stroke-linejoin="round" stroke-linecap="round" stroke-miterlimit="4" stroke-width="2.6"
                d="M6.6 16h18.8M16 25.4l9.4-9.4-9.4-9.4"></path>
        </symbol>
        <symbol id="icon-heart" viewBox="0 0 34 32">
            <path fill="#ff6b08" style="fill: var(--color2, #ff6b08)"
                d="M17.231 31.754l-2.462-2.462c-8.862-7.877-14.769-13.292-14.769-19.692 0-5.662 4.185-9.6 9.6-9.6 2.708 0 5.662 1.477 7.631 3.692 1.969-2.462 4.923-3.692 7.877-3.692 5.169 0 9.354 4.185 9.354 9.6 0 6.4-5.908 11.815-14.769 19.692l-2.462 2.462z">
            </path>
        </symbol>
        <symbol id="icon-film" viewBox="0 0 32 32">
            <path fill="none" stroke="#fff" stroke-linejoin="round" stroke-linecap="round" stroke-miterlimit="4"
                stroke-width="2.6667"
                d="M26.427 2.667h-20.853c-1.605 0-2.907 1.301-2.907 2.907v20.853c0 1.605 1.301 2.907 2.907 2.907h20.853c1.605 0 2.907-1.301 2.907-2.907v-20.853c0-1.605-1.301-2.907-2.907-2.907z">
            </path>
            <path fill="none" stroke="#fff" stroke-linejoin="round" stroke-linecap="round" stroke-miterlimit="4"
                stroke-width="2.6667" d="M9.333 2.667v26.667"></path>
            <path fill="none" stroke="#fff" stroke-linejoin="round" stroke-linecap="round" stroke-miterlimit="4"
                stroke-width="2.6667" d="M22.667 2.667v26.667"></path>
            <path fill="none" stroke="#fff" stroke-linejoin="round" stroke-linecap="round" stroke-miterlimit="4"
                stroke-width="2.6667" d="M2.667 16h26.667"></path>
            <path fill="none" stroke="#fff" stroke-linejoin="round" stroke-linecap="round" stroke-miterlimit="4"
                stroke-width="2.6667" d="M2.667 9.333h6.667"></path>
            <path fill="none" stroke="#fff" stroke-linejoin="round" stroke-linecap="round" stroke-miterlimit="4"
                stroke-width="2.6667" d="M2.667 22.667h6.667"></path>
            <path fill="none" stroke="#fff" stroke-linejoin="round" stroke-linecap="round" stroke-miterlimit="4"
                stroke-width="2.6667" d="M22.667 22.667h6.667"></path>
            <path fill="none" stroke="#fff" stroke-linejoin="round" stroke-linecap="round" stroke-miterlimit="4"
                stroke-width="2.6667" d="M22.667 9.333h6.667"></path>
        </symbol>
        <symbol id="icon-home" viewBox="0 0 32 32">
            <path d="M32 18.451l-16-12.42-16 12.42v-5.064l16-12.42 16 12.42zM28 18v12h-8v-8h-8v8h-8v-12l12-9z"></path>
        </symbol>
        <symbol id="icon-video-camera" viewBox="0 0 32 32">
            <path
                d="M12 9c0-2.761 2.239-5 5-5s5 2.239 5 5c0 2.761-2.239 5-5 5s-5-2.239-5-5zM0 9c0-2.761 2.239-5 5-5s5 2.239 5 5c0 2.761-2.239 5-5 5s-5-2.239-5-5zM24 19v-3c0-1.1-0.9-2-2-2h-20c-1.1 0-2 0.9-2 2v10c0 1.1 0.9 2 2 2h20c1.1 0 2-0.9 2-2v-3l8 5v-14l-8 5zM20 24h-16v-6h16v6z">
            </path>
        </symbol>
        <symbol id="icon-sun" viewBox="0 0 32 32">
            <path
                d="M16 26c1.105 0 2 0.895 2 2v2c0 1.105-0.895 2-2 2s-2-0.895-2-2v-2c0-1.105 0.895-2 2-2zM16 6c-1.105 0-2-0.895-2-2v-2c0-1.105 0.895-2 2-2s2 0.895 2 2v2c0 1.105-0.895 2-2 2zM30 14c1.105 0 2 0.895 2 2s-0.895 2-2 2h-2c-1.105 0-2-0.895-2-2s0.895-2 2-2h2zM6 16c0 1.105-0.895 2-2 2h-2c-1.105 0-2-0.895-2-2s0.895-2 2-2h2c1.105 0 2 0.895 2 2zM25.899 23.071l1.414 1.414c0.781 0.781 0.781 2.047 0 2.828s-2.047 0.781-2.828 0l-1.414-1.414c-0.781-0.781-0.781-2.047 0-2.828s2.047-0.781 2.828 0zM6.101 8.929l-1.414-1.414c-0.781-0.781-0.781-2.047 0-2.828s2.047-0.781 2.828 0l1.414 1.414c0.781 0.781 0.781 2.047 0 2.828s-2.047 0.781-2.828 0zM25.899 8.929c-0.781 0.781-2.047 0.781-2.828 0s-0.781-2.047 0-2.828l1.414-1.414c0.781-0.781 2.047-0.781 2.828 0s0.781 2.047 0 2.828l-1.414 1.414zM6.101 23.071c0.781-0.781 2.047-0.781 2.828 0s0.781 2.047 0 2.828l-1.414 1.414c-0.781 0.781-2.047 0.781-2.828 0s-0.781-2.047 0-2.828l1.414-1.414z">
            </path>
            <path
                d="M16 8c-4.418 0-8 3.582-8 8s3.582 8 8 8c4.418 0 8-3.582 8-8s-3.582-8-8-8zM16 21c-2.761 0-5-2.239-5-5s2.239-5 5-5 5 2.239 5 5-2.239 5-5 5z">
            </path>
        </symbol>
        <symbol id="icon-moon" viewBox="0 0 32 32">
            <path
                d="M12.775 0.331c0.565-0.117 1.13-0.201 1.687-0.255 0.573-0.055 1.141-0.081 1.7-0.075 0.315 0.003 0.568 0.26 0.565 0.575-0.003 0.242-0.156 0.448-0.37 0.529-2.383 0.937-4.289 2.685-5.458 4.849-1.151 2.127-1.588 4.656-1.065 7.208l0.003 0.018c0.596 2.88 2.299 5.247 4.578 6.747 2.276 1.5 5.122 2.13 8.002 1.542l0.018-0.003c2.073-0.43 3.877-1.43 5.286-2.807 1.458-1.424 2.489-3.25 2.95-5.25 0.070-0.307 0.378-0.497 0.682-0.427 0.232 0.055 0.398 0.242 0.435 0.463 0.687 4.218-0.352 8.351-2.62 11.642-2.258 3.276-5.736 5.721-9.942 6.585-4.328 0.891-8.606-0.057-12.025-2.307-3.422-2.258-5.981-5.812-6.872-10.14-0.87-4.226 0.013-8.406 2.151-11.783 2.148-3.388 5.559-5.973 9.734-6.986 0.081-0.021 0.174-0.042 0.276-0.065h0.003l0.281-0.060z">
            </path>
        </symbol>
        <symbol id="icon-search" viewBox="0 0 32 32">
            <path
                d="M31.008 27.231l-7.58-6.447c-0.784-0.705-1.622-1.029-2.299-0.998 1.789-2.096 2.87-4.815 2.87-7.787 0-6.627-5.373-12-12-12s-12 5.373-12 12 5.373 12 12 12c2.972 0 5.691-1.081 7.787-2.87-0.031 0.677 0.293 1.515 0.998 2.299l6.447 7.58c1.104 1.226 2.907 1.33 4.007 0.23s0.997-2.903-0.23-4.007zM12 20c-4.418 0-8-3.582-8-8s3.582-8 8-8 8 3.582 8 8-3.582 8-8 8z">
            </path>
        </symbol>

    </defs>
</svg>